#usda 1.0
(
    customLayerData = {
        string creator = "URDF USD Converter v0.1.3"
    }
    defaultPrim = "tn__SOARM101OMNIKIN_eM9E"
    doc = """Generated from Composed Stage of root layer /tmp/tmplqs5rorz/SO-ARM101-OMNI-KIN.usdc


Generated from Composed Stage of root layer /tmp/urdf_import_SO-ARM101-OMNI-KIN_roabtxo3/usdex_SO-ARM101-OMNI-KIN/SO-ARM101-OMNI-KIN.usdc


Generated from Composed Stage of root layer /tmp/urdf_import_SO-ARM101-OMNI-KIN_roabtxo3/temp_SO-ARM101-OMNI-KIN/SO-ARM101-OMNI-KIN.usd
"""
    kilogramsPerUnit = 1
    metersPerUnit = 1
    upAxis = "Z"
)

over "tn__SOARM101OMNIKIN_eM9E"
{
    over "Geometry"
    {
        over "base" (
            prepend apiSchemas = ["PhysicsRigidBodyAPI", "PhysicsArticulationRootAPI", "NewtonArticulationRootAPI", "PhysicsMassAPI"]
        )
        {
            bool newton:selfCollisionEnabled = 0
            point3f physics:centerOfMass = (0.000070295784, 0.016367381, 0.034713157)
            float3 physics:diagonalInertia = (0.00011298505, 0.000119918834, 0.00012305974)
            float physics:mass = 0.14019735
            quatf physics:principalAxes = (-0.40399253, 0.56094587, 0.4686301, 0.55001414)

            over "shoulder" (
                prepend apiSchemas = ["PhysicsRigidBodyAPI", "PhysicsMassAPI"]
            )
            {
                point3f physics:centerOfMass = (0.0004770892, 0.026698943, 0.025471898)
                float3 physics:diagonalInertia = (0.000033217828, 0.00009493658, 0.00010387958)
                float physics:mass = 0.112524286
                quatf physics:principalAxes = (0.7096734, 0.06538662, 0.6982909, -0.0669186)

                over "upper_arm" (
                    prepend apiSchemas = ["PhysicsRigidBodyAPI", "PhysicsMassAPI"]
                )
                {
                    point3f physics:centerOfMass = (-0.0033060987, -0.07760699, 0.012859956)
                    float3 physics:diagonalInertia = (0.000039196602, 0.00025134947, 0.00026122748)
                    float physics:mass = 0.1176533
                    quatf physics:principalAxes = (0.20106903, 0.6699006, 0.6462418, -0.30524734)

                    over "lower_arm" (
                        prepend apiSchemas = ["PhysicsRigidBodyAPI", "PhysicsMassAPI"]
                    )
                    {
                        point3f physics:centerOfMass = (0.0027481192, -0.084632166, -0.011360164)
                        float3 physics:diagonalInertia = (0.00003081505, 0.0002748191, 0.00029098376)
                        float physics:mass = 0.12021158
                        quatf physics:principalAxes = (-0.46015313, 0.5157494, 0.49306476, 0.5283453)

                        over "wrist" (
                            prepend apiSchemas = ["PhysicsRigidBodyAPI", "PhysicsMassAPI"]
                        )
                        {
                            point3f physics:centerOfMass = (-0.00007537263, -0.03205082, -0.018830065)
                            float3 physics:diagonalInertia = (0.000020455613, 0.000054648648, 0.00006468229)
                            float physics:mass = 0.09368656
                            quatf physics:principalAxes = (-0.29547927, 0.6440186, 0.2957187, 0.6406891)

                            over "gripper_base" (
                                prepend apiSchemas = ["PhysicsRigidBodyAPI", "PhysicsMassAPI"]
                            )
                            {
                                point3f physics:centerOfMass = (-0.00010779947, 0.026141651, 0.015566121)
                                float3 physics:diagonalInertia = (0.00005103819, 0.00006046444, 0.00006508752)
                                float physics:mass = 0.10461305
                                quatf physics:principalAxes = (0.89576167, -0.4445291, 0.0021752196, -0.00041263545)

                                over "gripper_gear" (
                                    prepend apiSchemas = ["PhysicsRigidBodyAPI", "PhysicsMassAPI"]
                                )
                                {
                                    point3f physics:centerOfMass = (-1.308436e-9, 9.683989e-7, -0.004039938)
                                    float3 physics:diagonalInertia = (5.5902666e-7, 5.5903024e-7, 8.85623e-7)
                                    float physics:mass = 0.017747246
                                    quatf physics:principalAxes = (1, 0.0001667317, 0.000007512482, -1.2525689e-9)
                                }

                                over "arm_r" (
                                    prepend apiSchemas = ["PhysicsRigidBodyAPI", "PhysicsMassAPI"]
                                )
                                {
                                    point3f physics:centerOfMass = (-0.03300428, 0.020582726, 0.0091384)
                                    float3 physics:diagonalInertia = (0.000007361121, 0.000019524343, 0.00002154446)
                                    float physics:mass = 0.026667753
                                    quatf physics:principalAxes = (0.9368701, 0.34565955, 0.005484146, 0.05257254)
                                }

                                over "arm_l" (
                                    prepend apiSchemas = ["PhysicsRigidBodyAPI", "PhysicsMassAPI"]
                                )
                                {
                                    point3f physics:centerOfMass = (-0.032265853, 0.021722011, 0.009138394)
                                    float3 physics:diagonalInertia = (0.000007361121, 0.000019524343, 0.00002154446)
                                    float physics:mass = 0.026667753
                                    quatf physics:principalAxes = (0.93580985, 0.34570262, -0.00054927176, 0.06891514)
                                }
                            }
                        }
                    }
                }
            }
        }
    }

    over "Physics"
    {
        def PhysicsRevoluteJoint "base_yaw_joint" (
            prepend apiSchemas = ["PhysicsDriveAPI:angular", "PhysicsJointStateAPI:angular"]
        )
        {
            float drive:angular:physics:maxForce = 1000000
            uniform token physics:axis = "Z"
            custom rel physics:body0
            prepend rel physics:body0 = </tn__SOARM101OMNIKIN_eM9E/Geometry/base>
            custom rel physics:body1
            prepend rel physics:body1 = </tn__SOARM101OMNIKIN_eM9E/Geometry/base/shoulder>
            point3f physics:localPos0 = (0.00042685, -0.00750309, 0.06039711)
            point3f physics:localPos1 = (0, 0, 0)
            quatf physics:localRot0 = (-0.000048737995, 0.00698109, -0.00698109, 0.99995124)
            quatf physics:localRot1 = (1, 0, 0, 0)
            float physics:lowerLimit = -105.000015
            float physics:upperLimit = 105.000015
            custom float urdf:limit:effort = 1000000
            custom float urdf:limit:velocity = 1000000
        }

        def PhysicsRevoluteJoint "shoulder_pitch_joint" (
            prepend apiSchemas = ["PhysicsDriveAPI:angular", "PhysicsJointStateAPI:angular"]
        )
        {
            float drive:angular:physics:maxForce = 1000000
            uniform token physics:axis = "X"
            custom rel physics:body0
            prepend rel physics:body0 = </tn__SOARM101OMNIKIN_eM9E/Geometry/base/shoulder>
            custom rel physics:body1
            prepend rel physics:body1 = </tn__SOARM101OMNIKIN_eM9E/Geometry/base/shoulder/upper_arm>
            point3f physics:localPos0 = (0.015083391, 0.030145787, 0.058690015)
            point3f physics:localPos1 = (0, 0, 0)
            quatf physics:localRot0 = (0.99997145, -0.0028910397, 0.0069813137, 0.000020183474)
            quatf physics:localRot1 = (0.92389816, 0, 0.38263842, 1.808761e-18)
            float physics:lowerLimit = -185
            float physics:upperLimit = 14.999978
            custom float urdf:limit:effort = 1000000
            custom float urdf:limit:velocity = 1000000
        }

        def PhysicsRevoluteJoint "elbow_joint" (
            prepend apiSchemas = ["PhysicsDriveAPI:angular", "PhysicsJointStateAPI:angular"]
        )
        {
            float drive:angular:physics:maxForce = 1000000
            uniform token physics:axis = "Z"
            custom rel physics:body0
            prepend rel physics:body0 = </tn__SOARM101OMNIKIN_eM9E/Geometry/base/shoulder/upper_arm>
            custom rel physics:body1
            prepend rel physics:body1 = </tn__SOARM101OMNIKIN_eM9E/Geometry/base/shoulder/upper_arm/lower_arm>
            point3f physics:localPos0 = (0.019671096, -0.113129474, 0.01882632)
            point3f physics:localPos1 = (0, 0, 0)
            quatf physics:localRot0 = (-0.0037783992, 0.92381585, -0.009120605, 0.3827098)
            quatf physics:localRot1 = (1, 0, 0, 0)
            float physics:lowerLimit = 0
            float physics:upperLimit = 190.00003
            custom float urdf:limit:effort = 1000000
            custom float urdf:limit:velocity = 1000000
        }

        def PhysicsRevoluteJoint "wrist_pitch_joint" (
            prepend apiSchemas = ["PhysicsDriveAPI:angular", "PhysicsJointStateAPI:angular"]
        )
        {
            float drive:angular:physics:maxForce = 1000000
            uniform token physics:axis = "Z"
            custom rel physics:body0
            prepend rel physics:body0 = </tn__SOARM101OMNIKIN_eM9E/Geometry/base/shoulder/upper_arm/lower_arm>
            custom rel physics:body1
            prepend rel physics:body1 = </tn__SOARM101OMNIKIN_eM9E/Geometry/base/shoulder/upper_arm/lower_arm/wrist>
            point3f physics:localPos0 = (0.00519986, -0.13484982, 0.0006)
            point3f physics:localPos1 = (0, 0, 0)
            quatf physics:localRot0 = (1, 0, 0, 0)
            quatf physics:localRot1 = (1, 0, 0, 0)
            float physics:lowerLimit = -99.999985
            float physics:upperLimit = 99.999985
            custom float urdf:limit:effort = 1000000
            custom float urdf:limit:velocity = 1000000
        }

        def PhysicsRevoluteJoint "wrist_roll_joint" (
            prepend apiSchemas = ["PhysicsDriveAPI:angular", "PhysicsJointStateAPI:angular"]
        )
        {
            float drive:angular:physics:maxForce = 1000000
            uniform token physics:axis = "X"
            custom rel physics:body0
            prepend rel physics:body0 = </tn__SOARM101OMNIKIN_eM9E/Geometry/base/shoulder/upper_arm/lower_arm/wrist>
            custom rel physics:body1
            prepend rel physics:body1 = </tn__SOARM101OMNIKIN_eM9E/Geometry/base/shoulder/upper_arm/lower_arm/wrist/gripper_base>
            point3f physics:localPos0 = (-0.00002461, -0.05697912, -0.0134)
            point3f physics:localPos1 = (0, 0, 0)
            quatf physics:localRot0 = (-0.6589576, -0.2729485, 0.26822588, 0.64755607)
            quatf physics:localRot1 = (0.70710677, 0, -0.5000009, 0.49999914)
            float physics:lowerLimit = -180.00002
            float physics:upperLimit = 180.00002
            custom float urdf:limit:effort = 1000000
            custom float urdf:limit:velocity = 1000000
        }

        def PhysicsRevoluteJoint "gripper_jaw_joint" (
            prepend apiSchemas = ["PhysicsDriveAPI:angular", "PhysicsJointStateAPI:angular"]
        )
        {
            uniform token physics:axis = "Z"
            custom rel physics:body0
            prepend rel physics:body0 = </tn__SOARM101OMNIKIN_eM9E/Geometry/base/shoulder/upper_arm/lower_arm/wrist/gripper_base>
            custom rel physics:body1
            prepend rel physics:body1 = </tn__SOARM101OMNIKIN_eM9E/Geometry/base/shoulder/upper_arm/lower_arm/wrist/gripper_base/gripper_gear>
            point3f physics:localPos0 = (-0.0000668, 0.029837094, 0.029768482)
            point3f physics:localPos1 = (0, 0, 0)
            quatf physics:localRot0 = (0.001651909, 0.0040383427, 0.37864408, 0.9255321)
            quatf physics:localRot1 = (-5.368081e-7, -1, 2.0450011e-7, 0)
        }

        def PhysicsPrismaticJoint "gripper_right_joint" (
            prepend apiSchemas = ["PhysicsDriveAPI:linear", "PhysicsJointStateAPI:linear"]
        )
        {
            float drive:linear:physics:maxForce = 1000000
            uniform token physics:axis = "Z"
            custom rel physics:body0
            prepend rel physics:body0 = </tn__SOARM101OMNIKIN_eM9E/Geometry/base/shoulder/upper_arm/lower_arm/wrist/gripper_base>
            custom rel physics:body1
            prepend rel physics:body1 = </tn__SOARM101OMNIKIN_eM9E/Geometry/base/shoulder/upper_arm/lower_arm/wrist/gripper_base/arm_r>
            point3f physics:localPos0 = (0.05997742, 0.05157099, 0.018972637)
            point3f physics:localPos1 = (0, 0, 0)
            quatf physics:localRot0 = (0.6556182, -0.26488644, 0.6556182, -0.26488644)
            quatf physics:localRot1 = (-1.9721523e-31, -1, 1.2715137e-14, 0)
            float physics:lowerLimit = -0.044
            float physics:upperLimit = 0
            custom float urdf:limit:effort = 1000000
            custom float urdf:limit:velocity = 1000000
        }

        def PhysicsPrismaticJoint "gripper_left_joint" (
            prepend apiSchemas = ["NewtonMimicAPI", "PhysicsDriveAPI:linear", "PhysicsJointStateAPI:linear"]
        )
        {
            float drive:linear:physics:maxForce = 1000000
            rel newton:mimicJoint = </tn__SOARM101OMNIKIN_eM9E/Physics/gripper_right_joint>
            uniform token physics:axis = "Z"
            custom rel physics:body0
            prepend rel physics:body0 = </tn__SOARM101OMNIKIN_eM9E/Geometry/base/shoulder/upper_arm/lower_arm/wrist/gripper_base>
            custom rel physics:body1
            prepend rel physics:body1 = </tn__SOARM101OMNIKIN_eM9E/Geometry/base/shoulder/upper_arm/lower_arm/wrist/gripper_base/arm_l>
            point3f physics:localPos0 = (-0.06002258, 0.018973317, 0.051570214)
            point3f physics:localPos1 = (0, 0, 0)
            quatf physics:localRot0 = (-0.2648864, -0.6556182, 0.2648864, 0.65561813)
            quatf physics:localRot1 = (-1.9721523e-31, -1, -1.2715137e-14, 0)
            float physics:lowerLimit = -0.044
            float physics:upperLimit = 0
            custom float urdf:limit:effort = 1000000
            custom float urdf:limit:velocity = 1000000
        }

        def PhysicsFixedJoint "root_joint"
        {
            custom rel physics:body0
            prepend rel physics:body0 = </tn__SOARM101OMNIKIN_eM9E>
            custom rel physics:body1
            prepend rel physics:body1 = </tn__SOARM101OMNIKIN_eM9E/Geometry/base>
            point3f physics:localPos0 = (0, 0, 0)
            point3f physics:localPos1 = (0, 0, 0)
            quatf physics:localRot0 = (1, 0, 0, 0)
            quatf physics:localRot1 = (1, 0, 0, 0)
        }
    }
}

