#usda 1.0
(
    customLayerData = {
        string creator = "URDF USD Converter v0.1.3"
    }
    defaultPrim = "tn__SOARM101OMNIKIN_eM9E"
    doc = """Generated from Composed Stage of root layer /tmp/tmplqs5rorz/SO-ARM101-OMNI-KIN.usdc


Generated from Composed Stage of root layer /tmp/urdf_import_SO-ARM101-OMNI-KIN_roabtxo3/usdex_SO-ARM101-OMNI-KIN/SO-ARM101-OMNI-KIN.usdc


Generated from Composed Stage of root layer /tmp/urdf_import_SO-ARM101-OMNI-KIN_roabtxo3/temp_SO-ARM101-OMNI-KIN/SO-ARM101-OMNI-KIN.usd
"""
    kilogramsPerUnit = 1
    metersPerUnit = 1
    subLayers = [
        @./robot.usda@
    ]
    upAxis = "Z"
)

def Xform "tn__SOARM101OMNIKIN_eM9E" (
    prepend apiSchemas = ["GeomModelAPI"]
    assetInfo = {
        string name = "SO-ARM101-OMNI-KIN"
    }
    displayName = "SO-ARM101-OMNI-KIN"
    kind = "component"
)
{
    float3[] extentsHint = [(-0.069439605, -0.2624955, 0.000017215174), (0.06612316, 0.11219495, 0.23672946), (3.4028235e38, 3.4028235e38, 3.4028235e38), (-3.4028235e38, -3.4028235e38, -3.4028235e38), (3.4028235e38, 3.4028235e38, 3.4028235e38), (-3.4028235e38, -3.4028235e38, -3.4028235e38), (-0.069439605, -0.2624955, 0.000017215174), (0.06612316, 0.11219495, 0.23672946)]

    def Scope "Geometry"
    {
        def Xform "base"
        {
            def Xform "base_visual" (
                instanceable = true
                prepend references = @./instances.usda@</Instances/base_visual>
            )
            {
                quatd xformOp:orient = (1, 0, 0, 0)
                double3 xformOp:scale = (0.001000000047, 0.001000000047, 0.001000000047)
                double3 xformOp:translate = (0, 0, 0)
                uniform token[] xformOpOrder = ["xformOp:translate", "xformOp:orient", "xformOp:scale"]
            }

            def Xform "base_collision" (
                instanceable = true
                prepend references = @./instances.usda@</Instances/base_visual_1>
            )
            {
                quatd xformOp:orient = (1, 0, 0, 0)
                double3 xformOp:scale = (0.001000000047, 0.001000000047, 0.001000000047)
                double3 xformOp:translate = (0, 0, 0)
                uniform token[] xformOpOrder = ["xformOp:translate", "xformOp:orient", "xformOp:scale"]
            }

            def Xform "shoulder"
            {
                quatf xformOp:orient = (-0.000048737995, 0.00698109, -0.00698109, 0.99995124)
                float3 xformOp:scale = (1, 1, 1)
                double3 xformOp:translate = (0.00042685, -0.0075030900000000005, 0.06039711)
                uniform token[] xformOpOrder = ["xformOp:translate", "xformOp:orient", "xformOp:scale"]

                def Xform "shoulder_visual" (
                    instanceable = true
                    prepend references = @./instances.usda@</Instances/shoulder_visual>
                )
                {
                    quatd xformOp:orient = (0.6532815099, 0.6532814503, 0.2705980241, 0.2705980241)
                    double3 xformOp:scale = (0.001000000047, 0.001000000047, 0.001000000047)
                    double3 xformOp:translate = (4.320285491e-9, -3.505804036e-10, 0.004699996355)
                    uniform token[] xformOpOrder = ["xformOp:translate", "xformOp:orient", "xformOp:scale"]
                }

                def Xform "shoulder_collision" (
                    instanceable = true
                    prepend references = @./instances.usda@</Instances/shoulder_visual_1>
                )
                {
                    quatd xformOp:orient = (0.6532815099, 0.6532814503, 0.2705980241, 0.2705980241)
                    double3 xformOp:scale = (0.001000000047, 0.001000000047, 0.001000000047)
                    double3 xformOp:translate = (4.320285491e-9, -3.505804036e-10, 0.004699996355)
                    uniform token[] xformOpOrder = ["xformOp:translate", "xformOp:orient", "xformOp:scale"]
                }

                def Xform "upper_arm"
                {
                    quatf xformOp:orient = (0.9265431, -0.0026633034, -0.3761775, 0.0011248704)
                    float3 xformOp:scale = (1, 1, 1)
                    double3 xformOp:translate = (0.01508339085041132, 0.030145787390712196, 0.05869001560217126)
                    uniform token[] xformOpOrder = ["xformOp:translate", "xformOp:orient", "xformOp:scale"]

                    def Xform "upper_arm_visual" (
                        instanceable = true
                        prepend references = @./instances.usda@</Instances/upper_arm_visual>
                    )
                    {
                        quatd xformOp:orient = (0.1499119699, 0.3520490825, -0.3619694114, 0.8500388265)
                        double3 xformOp:scale = (0.001000000047, 0.001000000047, 0.001000000047)
                        double3 xformOp:translate = (-0.08763449044, 0.05903462491, -0.06808313275)
                        uniform token[] xformOpOrder = ["xformOp:translate", "xformOp:orient", "xformOp:scale"]
                    }

                    def Xform "upper_arm_collision" (
                        instanceable = true
                        prepend references = @./instances.usda@</Instances/upper_arm_visual_1>
                    )
                    {
                        quatd xformOp:orient = (0.1499119699, 0.3520490825, -0.3619694114, 0.8500388265)
                        double3 xformOp:scale = (0.001000000047, 0.001000000047, 0.001000000047)
                        double3 xformOp:translate = (-0.08763449044, 0.05903462491, -0.06808313275)
                        uniform token[] xformOpOrder = ["xformOp:translate", "xformOp:orient", "xformOp:scale"]
                    }

                    def Xform "lower_arm"
                    {
                        quatf xformOp:orient = (-0.0037783992, 0.92381585, -0.009120605, 0.3827098)
                        float3 xformOp:scale = (1, 1, 1)
                        double3 xformOp:translate = (0.01967109565271384, -0.11312947591395282, 0.01882631990212243)
                        uniform token[] xformOpOrder = ["xformOp:translate", "xformOp:orient", "xformOp:scale"]

                        def Xform "lower_arm_visual" (
                            instanceable = true
                            prepend references = @./instances.usda@</Instances/lower_arm_visual>
                        )
                        {
                            quatd xformOp:orient = (0.6532816887, -0.2705976069, 0.6532816291, 0.2705976069)
                            double3 xformOp:scale = (0.001000000047, 0.001000000047, 0.001000000047)
                            double3 xformOp:translate = (-0.03889082325, 0.03889092695, 0.004700000366)
                            uniform token[] xformOpOrder = ["xformOp:translate", "xformOp:orient", "xformOp:scale"]
                        }

                        def Xform "lower_arm_collision" (
                            instanceable = true
                            prepend references = @./instances.usda@</Instances/lower_arm_visual_1>
                        )
                        {
                            quatd xformOp:orient = (0.6532816887, -0.2705976069, 0.6532816291, 0.2705976069)
                            double3 xformOp:scale = (0.001000000047, 0.001000000047, 0.001000000047)
                            double3 xformOp:translate = (-0.03889082325, 0.03889092695, 0.004700000366)
                            uniform token[] xformOpOrder = ["xformOp:translate", "xformOp:orient", "xformOp:scale"]
                        }

                        def Xform "wrist"
                        {
                            quatf xformOp:orient = (1, 0, 0, 0)
                            float3 xformOp:scale = (1, 1, 1)
                            double3 xformOp:translate = (0.005199859999999994, -0.13484981, 0.00060000000000076)
                            uniform token[] xformOpOrder = ["xformOp:translate", "xformOp:orient", "xformOp:scale"]

                            def Xform "wrist_visual" (
                                instanceable = true
                                prepend references = @./instances.usda@</Instances/wrist_visual>
                            )
                            {
                                quatd xformOp:orient = (0.6532816887, -0.2705976069, 0.6532816291, 0.2705976069)
                                double3 xformOp:scale = (0.001000000047, 0.001000000047, 0.001000000047)
                                double3 xformOp:translate = (-0.1559612667, -0.1100733339, -0.04778230094)
                                uniform token[] xformOpOrder = ["xformOp:translate", "xformOp:orient", "xformOp:scale"]
                            }

                            def Xform "wrist_collision" (
                                instanceable = true
                                prepend references = @./instances.usda@</Instances/wrist_visual_1>
                            )
                            {
                                quatd xformOp:orient = (0.6532816887, -0.2705976069, 0.6532816291, 0.2705976069)
                                double3 xformOp:scale = (0.001000000047, 0.001000000047, 0.001000000047)
                                double3 xformOp:translate = (-0.1559612667, -0.1100733339, -0.04778230094)
                                uniform token[] xformOpOrder = ["xformOp:translate", "xformOp:orient", "xformOp:scale"]
                            }

                            def Xform "gripper_base"
                            {
                                quatf xformOp:orient = (0.27628908, 0.65089506, 0.27628908, -0.65089506)
                                float3 xformOp:scale = (1, 1, 1)
                                double3 xformOp:translate = (-0.000024610000000055975, -0.05697911999999992, -0.013400000000000302)
                                uniform token[] xformOpOrder = ["xformOp:translate", "xformOp:orient", "xformOp:scale"]

                                def Xform "gripper_base_visual" (
                                    instanceable = true
                                    prepend references = @./instances.usda@</Instances/gripper_base_visual>
                                )
                                {
                                    quatd xformOp:orient = (0, 0, 0.9238792658, 0.382684052)
                                    double3 xformOp:scale = (0.001000000047, 0.001000000047, 0.001000000047)
                                    double3 xformOp:translate = (-3.655863098e-10, 0.08817609256, 0.08817633442)
                                    uniform token[] xformOpOrder = ["xformOp:translate", "xformOp:orient", "xformOp:scale"]
                                }

                                def Xform "gripper_base_collision" (
                                    instanceable = true
                                    prepend references = @./instances.usda@</Instances/gripper_base_visual_1>
                                )
                                {
                                    quatd xformOp:orient = (0, 0, 0.9238792658, 0.382684052)
                                    double3 xformOp:scale = (0.001000000047, 0.001000000047, 0.001000000047)
                                    double3 xformOp:translate = (-3.655863098e-10, 0.08817609256, 0.08817633442)
                                    uniform token[] xformOpOrder = ["xformOp:translate", "xformOp:orient", "xformOp:scale"]
                                }

                                def Xform "gripper_gear"
                                {
                                    quatf xformOp:orient = (-0.0040382664, 0.001652096, 0.92553186, -0.37864456)
                                    float3 xformOp:scale = (1, 1, 1)
                                    double3 xformOp:translate = (-0.0000668000000001076, 0.02983709377304219, 0.029768482292113645)
                                    uniform token[] xformOpOrder = ["xformOp:translate", "xformOp:orient", "xformOp:scale"]

                                    def Xform "gripper_gear_visual" (
                                        instanceable = true
                                        prepend references = @./instances.usda@</Instances/gripper_gear_visual>
                                    )
                                    {
                                        quatd xformOp:orient = (0, 0, 0.7071070075, 0.7071065307)
                                        double3 xformOp:scale = (0.001000000047, 0.001000000047, 0.001000000047)
                                        double3 xformOp:translate = (-0.04096474937, -0.008207649873, 0.1737567229)
                                        uniform token[] xformOpOrder = ["xformOp:translate", "xformOp:orient", "xformOp:scale"]
                                    }

                                    def Xform "gripper_gear_collision" (
                                        instanceable = true
                                        prepend references = @./instances.usda@</Instances/gripper_gear_visual_1>
                                    )
                                    {
                                        quatd xformOp:orient = (0, 0, 0.7071070075, 0.7071065307)
                                        double3 xformOp:scale = (0.001000000047, 0.001000000047, 0.001000000047)
                                        double3 xformOp:translate = (-0.04096474937, -0.008207649873, 0.1737567229)
                                        uniform token[] xformOpOrder = ["xformOp:translate", "xformOp:orient", "xformOp:scale"]
                                    }
                                }

                                def Xform "arm_r"
                                {
                                    quatf xformOp:orient = (0.26488644, 0.6556182, -0.26488644, -0.6556182)
                                    float3 xformOp:scale = (1, 1, 1)
                                    double3 xformOp:translate = (0.05997741999999993, 0.051570988947885824, 0.018972636875129838)
                                    uniform token[] xformOpOrder = ["xformOp:translate", "xformOp:orient", "xformOp:scale"]

                                    def Xform "arm_r_visual" (
                                        instanceable = true
                                        prepend references = @./instances.usda@</Instances/arm_r_visual>
                                    )
                                    {
                                        quatd xformOp:orient = (0.5043442249, 0.4956176877, 0.5043442249, -0.4956176877)
                                        double3 xformOp:scale = (0.001000000047, 0.001000000047, 0.001000000047)
                                        double3 xformOp:translate = (0.2408318006, 0.02713234823, 0.0600000028)
                                        uniform token[] xformOpOrder = ["xformOp:translate", "xformOp:orient", "xformOp:scale"]
                                    }

                                    def Xform "arm_r_collision" (
                                        instanceable = true
                                        prepend references = @./instances.usda@</Instances/arm_r_visual_1>
                                    )
                                    {
                                        quatd xformOp:orient = (0.5043442249, 0.4956176877, 0.5043442249, -0.4956176877)
                                        double3 xformOp:scale = (0.001000000047, 0.001000000047, 0.001000000047)
                                        double3 xformOp:translate = (0.2408318006, 0.02713234823, 0.0600000028)
                                        uniform token[] xformOpOrder = ["xformOp:translate", "xformOp:orient", "xformOp:scale"]
                                    }
                                }

                                def Xform "arm_l"
                                {
                                    quatf xformOp:orient = (0.6556182, -0.2648864, 0.65561813, -0.2648864)
                                    float3 xformOp:scale = (1, 1, 1)
                                    double3 xformOp:translate = (-0.06002258000000019, 0.01897331774118804, 0.051570212519384845)
                                    uniform token[] xformOpOrder = ["xformOp:translate", "xformOp:orient", "xformOp:scale"]

                                    def Xform "arm_l_visual" (
                                        instanceable = true
                                        prepend references = @./instances.usda@</Instances/arm_l_visual>
                                    )
                                    {
                                        quatd xformOp:orient = (0.4956176877, -0.5043442249, -0.4956176877, -0.5043442249)
                                        double3 xformOp:scale = (0.001000000047, 0.001000000047, 0.001000000047)
                                        double3 xformOp:translate = (0.2416316994, 0.0186941675, 0.0599999972)
                                        uniform token[] xformOpOrder = ["xformOp:translate", "xformOp:orient", "xformOp:scale"]
                                    }

                                    def Xform "arm_l_collision" (
                                        instanceable = true
                                        prepend references = @./instances.usda@</Instances/arm_l_visual_1>
                                    )
                                    {
                                        quatd xformOp:orient = (0.4956176877, -0.5043442249, -0.4956176877, -0.5043442249)
                                        double3 xformOp:scale = (0.001000000047, 0.001000000047, 0.001000000047)
                                        double3 xformOp:translate = (0.2416316994, 0.0186941675, 0.0599999972)
                                        uniform token[] xformOpOrder = ["xformOp:translate", "xformOp:orient", "xformOp:scale"]
                                    }
                                }
                            }
                        }
                    }
                }
            }
        }
    }

    def Scope "Physics"
    {
    }
}

